# xmcd
#
# Track frame offsets:
#	150
#	10148
#	24402
#	41704
#	56890
#	73514
#	88692
#	105073
#	121572
#	138749
#	157477
#	170573
#	184019
#	199983
#	213737
#	231615
#	245718
#	261851
#	274465
#
# Disc length: 3838 seconds
#
# Revision: 1
# Processed by: cddbd v1.5.2PL0 Copyright (c) Steve Scherf et al.
# Submitted via: audiograbber 1.83.01
#
DISCID=240efc13
DTITLE=Various Artist - beautifull country
DYEAR=1900
DGENRE=Country
TTITLE0=Backmann, cash - On The Road Again
TTITLE1=teddy nelson - American Dreamer
TTITLE2=bobby bare - Sylvia's Mother
TTITLE3=tom astor - Halt Abstand Junge
TTITLE4=robert hines - Roll On Eighteen Wheeler
TTITLE5=larry trawick - The Closer You Get
TTITLE6=western union - Nach Süden
TTITLE7=buffalo c. wayne - Rock'n Roll Rodeo
TTITLE8=freeway - Jolene
TTITLE9=lewis nedderman and band - The Accordion Man
TTITLE10=joe conley - Girl On The Billboard
TTITLE11=hugh roberts - Same Ole Me
TTITLE12=blue river connection - Me And Bobby Mc Gee
TTITLE13=barbara shelton - Coal Miner's Daughter
TTITLE14=kenneth plummer - I'm Gonna Hire A Wino
TTITLE15=teddy nelson - I Like It I'm A Trucker
TTITLE16=gunter gabriel - Mädchen ab 30
TTITLE17=betty webster - Til You're Gone
TTITLE18=larry dison - Big City
EXTD=
EXTT0=
EXTT1=
EXTT2=
EXTT3=
EXTT4=
EXTT5=
EXTT6=
EXTT7=
EXTT8=
EXTT9=
EXTT10=
EXTT11=
EXTT12=
EXTT13=
EXTT14=
EXTT15=
EXTT16=
EXTT17=
EXTT18=
PLAYORDER=
